<svg width="24" height="25" viewBox="0 0 24 25" fill="none" xmlns="http://www.w3.org/2000/svg">
<path d="M1.03914 22.753C0.648614 22.3625 0.648614 21.7293 1.03914 21.3388L20.8381 1.5398C21.2287 1.14928 21.8618 1.14928 22.2523 1.5398L22.9594 2.24691C23.35 2.63743 23.35 3.2706 22.9594 3.66112L3.16046 23.4601C2.76993 23.8506 2.13677 23.8506 1.74624 23.4601L1.03914 22.753Z" fill="black"/>
<path d="M1.74602 1.53987C2.13654 1.14935 2.76971 1.14935 3.16023 1.53987L22.9592 21.3389C23.3497 21.7294 23.3497 22.3626 22.9592 22.7531L22.2521 23.4602C21.8616 23.8507 21.2284 23.8507 20.8379 23.4602L1.03891 3.66119C0.648388 3.27067 0.648387 2.6375 1.03891 2.24698L1.74602 1.53987Z" fill="black"/>
</svg>
