<svg width="7" height="7" viewBox="0 0 7 7" fill="none" xmlns="http://www.w3.org/2000/svg">
<path d="M3.49132 0C4.13979 0 4.73325 0.152427 5.27171 0.457286C5.81018 0.762145 6.23284 1.17546 6.5397 1.69724C6.84657 2.21901 7 2.80234 7 3.44724C7 4.11558 6.84657 4.71943 6.5397 5.25879C6.23284 5.79816 5.81018 6.2232 5.27171 6.53392C4.73325 6.84464 4.13979 7 3.49132 7C2.84284 7 2.25228 6.84464 1.7196 6.53392C1.18693 6.2232 0.767164 5.79816 0.460297 5.25879C0.15343 4.71943 0 4.11558 0 3.44724C0 2.80234 0.15343 2.21901 0.460297 1.69724C0.767164 1.17546 1.18693 0.762145 1.7196 0.457286C2.25228 0.152427 2.84284 0 3.49132 0ZM3.49132 6.15578C3.98925 6.15578 4.44086 6.03853 4.84616 5.80402C5.25146 5.56951 5.56989 5.24414 5.80148 4.82789C6.03308 4.41164 6.14888 3.95143 6.14888 3.44724C6.14888 2.9665 6.03308 2.52387 5.80148 2.11935C5.56989 1.71482 5.25146 1.39824 4.84616 1.1696C4.44086 0.940954 3.98925 0.826633 3.49132 0.826633C3.00496 0.826633 2.56204 0.940954 2.16254 1.1696C1.76303 1.39824 1.44748 1.71482 1.21588 2.11935C0.984284 2.52387 0.868484 2.9665 0.868484 3.44724C0.868484 3.95143 0.984284 4.41164 1.21588 4.82789C1.44748 5.24414 1.76303 5.56951 2.16254 5.80402C2.56204 6.03853 3.00496 6.15578 3.49132 6.15578ZM4.68983 2.86683C4.68983 3.24204 4.55087 3.51172 4.27295 3.67588C4.22663 3.71106 4.20926 3.75796 4.22084 3.81658L4.56824 4.76633C4.57982 4.80151 4.5856 4.84255 4.5856 4.88945C4.5856 5.01843 4.50456 5.08291 4.34244 5.08291H4.16873C4.01819 5.08291 3.91398 5.0067 3.85608 4.85427L3.52606 3.90452C3.51448 3.8459 3.47394 3.81658 3.40446 3.81658H3.33499C3.26551 3.81658 3.23077 3.85176 3.23077 3.92211V4.80151C3.23077 4.98911 3.13813 5.08291 2.95285 5.08291H2.79652C2.61125 5.08291 2.51862 4.98911 2.51862 4.80151V2.14573C2.51862 1.95812 2.61125 1.86432 2.79652 1.86432H3.69975C3.98925 1.86432 4.22663 1.96105 4.41191 2.15452C4.59719 2.34799 4.68983 2.58543 4.68983 2.86683ZM3.33499 2.4799C3.26551 2.4799 3.23077 2.51508 3.23077 2.58543V3.16583C3.23077 3.23618 3.26551 3.27136 3.33499 3.27136H3.59554C3.71133 3.27136 3.80396 3.23325 3.87344 3.15703C3.94292 3.08082 3.97766 2.98995 3.97766 2.88442C3.97766 2.76717 3.94292 2.67044 3.87344 2.59422C3.80396 2.51801 3.71133 2.4799 3.59554 2.4799H3.33499Z" fill="black"/>
</svg>
